<svg width="24" height="15" viewBox="0 0 24 15" fill="none" xmlns="http://www.w3.org/2000/svg">
<path d="M1.1049 7.553C0.273896 9.215 0.413896 11.796 1.4229 13.429C2.0499 14.442 2.9649 15 3.9999 15C4.2389 15 4.7719 14.992 5.6439 14.023L2.5739 5.577C2.0429 6.098 1.5069 6.75 1.1049 7.553Z" fill="#111216"/>
<path d="M22.895 7.553C22.494 6.75 21.957 6.098 21.426 5.578L18.356 14.024C19.229 14.992 19.761 15 20 15C21.035 15 21.949 14.442 22.576 13.429C23.586 11.796 23.725 9.215 22.895 7.553Z" fill="#111216"/>
<path d="M4.29288 3.293C4.03588 3.55 3.93788 3.925 4.03888 4.275L6.03888 11.275C6.11288 11.537 6.29188 11.757 6.53288 11.885C6.67888 11.961 6.83888 12 6.99988 12C7.24188 12 7.57188 11.864 7.81188 11.783L6.30788 2C5.67388 2.217 4.98088 2.606 4.29288 3.293Z" fill="#111216"/>
<path d="M19.707 3.293C19.02 2.606 18.326 2.217 17.692 2L16.187 11.783C16.428 11.863 16.758 12 17 12C17.161 12 17.321 11.961 17.467 11.885C17.708 11.757 17.887 11.537 17.961 11.275L19.961 4.275C20.062 3.925 19.964 3.55 19.707 3.293Z" fill="#111216"/>
<path d="M12 0C9.65297 0 8.42597 1.161 8.29297 1.293C8.07797 1.508 7.97297 1.809 8.00597 2.11L9.00597 11.11C9.06197 11.617 9.48997 12 9.99997 12H14C14.51 12 14.938 11.617 14.994 11.11L15.994 2.11C16.027 1.809 15.922 1.508 15.707 1.293C15.574 1.161 14.347 0 12 0Z" fill="#111216"/>
</svg>
