<svg width="25" height="24" viewBox="0 0 25 24" fill="none" xmlns="http://www.w3.org/2000/svg">
<g clip-path="url(#clip0_3_154)">
<path d="M18.1371 5.99899H17.1371V4.99899C17.1371 4.44799 16.6901 3.99899 16.1371 3.99899H4.13708C3.58408 3.99899 3.13708 4.44799 3.13708 4.99899V12.999C3.13708 14.488 3.60708 15.865 4.40208 16.999H15.8591C16.4721 16.122 16.8981 15.105 17.0571 13.999H18.1371C20.3421 13.999 22.1371 12.205 22.1371 9.99899C22.1371 7.79399 20.3421 5.99899 18.1371 5.99899ZM18.1371 12H17.1371V7.99999H18.1371C19.2411 7.99999 20.1371 8.89699 20.1371 9.99999C20.1371 11.102 19.2411 12 18.1371 12Z" fill="black"/>
<path d="M18.1371 18H2.13708V20H18.1371V18Z" fill="black"/>
</g>
<defs>
<clipPath id="clip0_3_154">
<rect width="24" height="24" fill="white" transform="translate(0.137085)"/>
</clipPath>
</defs>
</svg>
