<svg width="22" height="24" viewBox="0 0 22 24" fill="none" xmlns="http://www.w3.org/2000/svg">
<g clip-path="url(#clip0_3_137)">
<path fill-rule="evenodd" clip-rule="evenodd" d="M17.4387 6C16.6721 6 15.9991 5.27925 15.9991 4.5V1.52325V1.52175L19.598 6H17.4387ZM15.9991 12.012H9.52129C9.12399 12.012 8.80153 11.676 8.80153 11.2627C8.80153 10.8487 9.12399 10.5135 9.52129 10.5135H15.9991C16.3965 10.5135 16.7189 10.8487 16.7189 11.2627C16.7189 11.676 16.3965 12.012 15.9991 12.012ZM15.9991 15.7583H9.52129C9.12399 15.7583 8.80153 15.4223 8.80153 15.009C8.80153 14.595 9.12399 14.2598 9.52129 14.2598H15.9991C16.3965 14.2598 16.7189 14.595 16.7189 15.009C16.7189 15.4223 16.3965 15.7583 15.9991 15.7583ZM14.5596 22.5H3.7632C3.00745 22.5 2.32368 21.7642 2.32368 21V6C2.32368 4.88475 3.20467 4.5 4.48296 4.5V18C4.48296 19.5443 5.83899 21 7.36201 21C7.36201 21 15.1657 20.9917 16.0056 20.9917C16.0056 21.9015 15.4327 22.5 14.5596 22.5ZM15.9991 0.0232487C15.9099 0.0232487 7.36201 0 7.36201 0C5.83899 0 4.48296 1.45575 4.48296 3L3.65164 3.02025C2.12862 3.02025 0.884155 4.45575 0.884155 6V21C0.884155 22.5443 2.24019 24 3.7632 24H14.5596C16.0826 24 17.4387 22.5443 17.4387 21H18.1584C19.6814 21 21.0375 19.5443 21.0375 18V6.01725L15.9991 0.0232487Z" fill="#111216"/>
</g>
<defs>
<clipPath id="clip0_3_137">
<rect width="20.1533" height="24" fill="white" transform="translate(0.884155)"/>
</clipPath>
</defs>
</svg>
