<svg width="25" height="24" viewBox="0 0 25 24" fill="none" xmlns="http://www.w3.org/2000/svg">
<g clip-path="url(#clip0_3_170)">
<path d="M7.57687 6.293C5.89187 4.609 7.28487 3.007 7.58187 2.703C6.70687 1.839 7.05187 2.182 6.16287 1.293C4.87387 2.582 3.81087 5.354 6.16287 7.706L7.57687 6.293Z" fill="black"/>
<path d="M9.27394 5.293L10.6879 6.706C12.6739 4.72 11.7769 2.38 10.6879 1.293L9.26794 2.701C9.56794 3.011 10.4529 4.113 9.27394 5.293Z" fill="black"/>
<path d="M21.8689 12H3.8689C3.3159 12 2.8689 12.448 2.8689 13C2.8689 18.515 7.3549 23 12.8689 23C18.3829 23 22.8689 18.515 22.8689 13C22.8689 12.448 22.4219 12 21.8689 12Z" fill="black"/>
<path d="M19.8699 2.99999C18.2629 2.19599 14.7189 8.49599 13.3889 11H18.3429C19.3349 8.82999 21.4339 3.78299 19.8699 2.99999Z" fill="black"/>
</g>
<defs>
<clipPath id="clip0_3_170">
<rect width="24" height="24" fill="white" transform="translate(0.868896)"/>
</clipPath>
</defs>
</svg>
