<svg width="25" height="24" viewBox="0 0 25 24" fill="none" xmlns="http://www.w3.org/2000/svg">
<g clip-path="url(#clip0_3_179)">
<path d="M16.6466 6H8.64661C3.90061 6 2.64661 11.233 2.64661 14C2.64661 14.404 2.89061 14.768 3.26261 14.922C3.91761 15.196 4.19161 14.831 4.64661 14.442V15C4.64661 16.654 5.99261 18 7.64661 18H17.6466C19.3006 18 20.6466 16.654 20.6466 15V14.442C21.0916 14.823 21.3826 15.192 22.0306 14.922C22.4026 14.768 22.6466 14.404 22.6466 14C22.6466 11.233 21.3926 6 16.6466 6ZM20.3776 11.81C19.5906 11.368 18.6386 11 17.6466 11H17.1246L18.1816 8.358C19.4686 9.028 20.0846 10.525 20.3776 11.81ZM10.3246 8H12.1696L10.9696 11H9.12461L10.3246 8ZM14.3246 8H16.1696L14.9696 11H13.1246L14.3246 8ZM8.14661 8.057L6.94461 11.061C6.20961 11.182 5.51361 11.473 4.91561 11.81C5.27761 10.224 6.14461 8.336 8.14661 8.057ZM18.6466 15C18.6466 15.551 18.1976 16 17.6466 16H7.64661C7.09561 16 6.64661 15.551 6.64661 15V13.204C6.98061 13.079 7.32161 13 7.64661 13H17.6466C17.9716 13 18.3126 13.079 18.6466 13.204V15Z" fill="black"/>
</g>
<defs>
<clipPath id="clip0_3_179">
<rect width="24" height="24" fill="white" transform="translate(0.646606)"/>
</clipPath>
</defs>
</svg>
